<svg width="32" height="32" viewBox="0 0 496 495" xmlns="http://www.w3.org/2000/svg">
  <g transform="translate(0,495) scale(0.1,-0.1)" fill="#D41818" stroke="none">
    <path d="M1639 3882 c-285 -307 -383 -784 -248 -1202 66 -201 235 -440 391 -552 l30 -20 -31 60 c-16 33 -40 95 -53 138 -22 78 -23 86 -28 858 l-5 779 -56 -61z"/>
    <path d="M3325 3172 c-1 -762 -1 -768 -23 -847 -12 -44 -36 -108 -52 -143 -28 -60 -28 -62 -7 -50 35 19 180 169 230 240 146 204 219 441 219 703 0 305 -94 559 -292 793 -34 39 -65 72 -69 72 -3 0 -6 -345 -6 -768z"/>
    <path d="M4415 2610 c-3 -5 -15 -44 -26 -87 -77 -293 -259 -603 -494 -839 -527 -529 -1291 -714 -1995 -484 -184 61 -430 192 -590 315 -319 245 -591 659 -679 1032 -13 54 -33 69 -79 56 -22 -5 -22 -6 -22 -232 1 -429 21 -611 90 -806 84 -235 211 -420 395 -575 126 -107 216 -156 532 -290 339 -144 494 -219 610 -296 102 -68 249 -206 310 -291 25 -35 46 -63 48 -63 2 0 23 28 48 63 63 87 211 227 309 291 131 85 295 163 667 317 293 122 441 216 585 370 137 148 229 305 296 508 60 181 70 274 70 675 l0 346 -34 0 c-19 0 -38 -4 -41 -10z"/>
  </g>
</svg>

