<?xml version="1.0" standalone="no"?>
<!DOCTYPE svg PUBLIC "-//W3C//DTD SVG 20010904//EN"
 "http://www.w3.org/TR/2001/REC-SVG-20010904/DTD/svg10.dtd">
<svg version="1.0" xmlns="http://www.w3.org/2000/svg"
 width="496.000000pt" height="495.000000pt" viewBox="0 0 496.000000 495.000000"
 preserveAspectRatio="xMidYMid meet">

<g transform="translate(0.000000,495.000000) scale(0.100000,-0.100000)"
fill="#D41818" stroke="none">
<path d="M1639 3882 c-285 -307 -383 -784 -248 -1202 66 -201 235 -440 391
-552 l30 -20 -31 60 c-16 33 -40 95 -53 138 -22 78 -23 86 -28 858 l-5 779
-56 -61z"/>
<path d="M3325 3172 c-1 -762 -1 -768 -23 -847 -12 -44 -36 -108 -52 -143 -28
-60 -28 -62 -7 -50 35 19 180 169 230 240 146 204 219 441 219 703 0 305 -94
559 -292 793 -34 39 -65 72 -69 72 -3 0 -6 -345 -6 -768z"/>
<path d="M4415 2610 c-3 -5 -15 -44 -26 -87 -77 -293 -259 -603 -494 -839
-527 -529 -1291 -714 -1995 -484 -184 61 -430 192 -590 315 -319 245 -591 659
-679 1032 -13 54 -33 69 -79 56 -22 -5 -22 -6 -22 -232 1 -429 21 -611 90
-806 84 -235 211 -420 395 -575 126 -107 216 -156 532 -290 339 -144 494 -219
610 -296 102 -68 249 -206 310 -291 25 -35 46 -63 48 -63 2 0 23 28 48 63 63
87 211 227 309 291 131 85 295 163 667 317 293 122 441 216 585 370 137 148
229 305 296 508 60 181 70 274 70 675 l0 346 -34 0 c-19 0 -38 -4 -41 -10z"/>
<path d="M2930 1787 c-54 -18 -60 -23 -37 -25 16 -2 34 1 41 7 7 6 21 9 32 7
12 -3 25 4 32 15 15 23 14 23 -68 -4z"/>
<path d="M2760 1744 c-39 -9 -137 -15 -243 -17 -133 -1 -172 -5 -155 -12 13
-6 41 -27 63 -48 22 -20 136 -111 254 -202 246 -190 208 -178 391 -118 175 57
450 199 434 224 -3 6 2 9 11 7 11 -2 19 4 21 15 2 17 0 17 -29 -2 -18 -11 -32
-24 -32 -30 0 -5 -3 -13 -7 -17 -4 -3 -6 3 -3 15 3 16 -1 21 -16 21 -11 0 -19
7 -19 18 0 14 -2 14 -9 3 -8 -12 -12 -12 -25 -2 -13 11 -16 11 -17 0 0 -8 -6
4 -14 26 -7 22 -13 35 -14 29 -1 -16 -68 -6 -98 13 -13 9 -32 13 -43 10 -16
-4 -18 -2 -10 13 8 15 6 17 -10 13 -11 -3 -19 -8 -18 -12 2 -19 -4 -20 -24 -1
-12 11 -28 20 -35 20 -8 0 -12 4 -8 9 3 5 1 12 -5 16 -5 3 -10 3 -10 -2 0 -4
-14 -8 -31 -9 -21 -1 -29 3 -25 12 3 8 -1 14 -9 14 -8 0 -15 -7 -15 -15 0 -17
-16 -20 -25 -5 -4 7 -12 7 -25 0 -13 -7 -21 -7 -25 0 -4 6 -10 8 -15 5 -5 -3
-11 -1 -15 4 -3 6 -12 8 -19 5 -8 -3 -17 -1 -21 5 -8 13 -22 13 -105 -5z m35
-14 c-3 -5 -10 -10 -16 -10 -5 0 -9 5 -9 10 0 6 7 10 16 10 8 0 12 -4 9 -10z"/>
</g>
</svg>
